<svg width="16" height="16" viewBox="0 0 16 16" fill="none" xmlns="http://www.w3.org/2000/svg">
<path d="M15.9417 6H14.2937H12.5478H8V9.45447H12.5848C11.9155 11.3179 10.1659 12.6276 8.09232 12.6276C8.0637 12.6276 8.03523 12.6281 8.00671 12.6276V16C17.2019 15.3862 15.9417 6 15.9417 6Z" fill="white"/>
<path d="M7.99973 3.06859V0.00483131C4.88918 -0.0945183 3.52564 1.36993 3.35625 1.50286V0.00480366L0 0.00483131V9H3.35622L3.36046 7.50815C3.36043 7.50211 3.36022 7.4961 3.36022 7.49006C3.36022 7.48078 3.36052 7.47159 3.36058 7.46234L3.3607 7.42659C3.36082 7.42609 3.36097 7.42558 3.36109 7.42508C3.39784 5.03959 5.45359 3.19647 7.99973 3.15392C8.00033 3.1538 7.99973 3.06859 7.99973 3.06859Z" fill="white"/>
</svg>
